<!DOCTYPE svg PUBLIC "-//W3C//DTD SVG 1.1//EN" "http://www.w3.org/Graphics/SVG/1.1/DTD/svg11.dtd">
<!-- Uploaded to: SVG Repo, www.svgrepo.com, Transformed by: SVG Repo Mixer Tools -->
<svg width="256px" height="256px" viewBox="-10.24 -10.24 532.48 532.48" xmlns="http://www.w3.org/2000/svg" fill="#f8993a" stroke="#f8993a" stroke-width="9.728" transform="matrix(-1, 0, 0, 1, 0, 0)rotate(270)">
<g id="SVGRepo_bgCarrier" stroke-width="0"/>
<g id="SVGRepo_tracerCarrier" stroke-linecap="round" stroke-linejoin="round"/>
<g id="SVGRepo_iconCarrier">
<path fill="##f8993a" d="M395.13 313l89.869-100.857H388.08c-45.748 0-82.824-37.063-82.824-82.824l-.297-33.208-100.857-77.147v96.917c0 45.751-37.06 82.824-82.822 82.824l-9.844.298L27.001 299.86h96.92c45.75 0 82.822 37.062 82.822 82.824l.298 20.484 100.854 89.868v-96.913c0-45.749 37.062-82.823 82.824-82.823zM256 306.669c-27.99 0-50.666-22.685-50.666-50.665 0-27.99 22.679-50.671 50.665-50.671 27.99 0 50.67 22.682 50.67 50.671 0 27.98-22.683 50.665-50.67 50.665z"/>
</g>
</svg>